<svg width="438" height="483" viewBox="0 0 438 483" fill="none" xmlns="http://www.w3.org/2000/svg">
<path d="M280.062 295.605C279.004 295.925 277.975 296.285 276.976 296.698C276.439 296.915 275.862 297.018 275.283 296.999C274.704 296.979 274.135 296.839 273.614 296.586C273.092 296.334 272.63 295.975 272.256 295.533C271.882 295.09 271.604 294.574 271.442 294.018L254.922 238.513L66.7708 294.506L111.627 445.242C113.198 450.51 116.796 454.94 121.631 457.556C126.467 460.172 132.143 460.76 137.413 459.192L285.834 415.015C291.103 413.445 295.532 409.847 298.148 405.011C300.764 400.176 301.353 394.5 299.785 389.23L289.182 353.593C289.015 353.038 288.965 352.454 289.037 351.88C289.108 351.305 289.299 350.751 289.598 350.254C289.896 349.758 290.295 349.329 290.769 348.996C291.243 348.663 291.782 348.433 292.35 348.32C293.423 348.12 294.484 347.864 295.53 347.553C311.108 342.903 320.269 327.528 316.002 313.177C311.736 298.825 295.64 290.972 280.062 295.605Z" fill="#99ADF9"/>
<g style="mix-blend-mode:multiply" opacity="0.25">
<path d="M229.741 437.173C229.741 437.173 147.422 460.279 129.292 446.863C114.016 435.586 113.313 423.961 91.6312 378.093C91.3871 417.619 112.958 482.489 112.958 482.489L229.741 437.173Z" fill="#99ADF9"/>
</g>
<g style="mix-blend-mode:multiply" opacity="0.25">
<path d="M136.901 281.097C136.901 281.097 144.934 319.553 174.05 310.892C203.165 302.231 188.837 265.629 188.837 265.629L136.901 281.097Z" fill="#99ADF9"/>
</g>
<path d="M204.154 67.9214L35.8586 117.992C30.5903 119.561 26.1609 123.158 23.5448 127.993C20.9286 132.827 20.3399 138.503 21.9081 143.771L66.7705 294.506L131.338 275.324C131.848 275.171 132.384 275.125 132.913 275.191C133.441 275.256 133.95 275.431 134.407 275.705C134.864 275.979 135.259 276.345 135.566 276.779C135.873 277.214 136.086 277.709 136.192 278.231C136.382 279.2 136.622 280.168 136.912 281.137C141.563 296.709 156.937 305.876 171.283 301.604C185.629 297.331 193.511 281.259 188.872 265.67C188.582 264.705 188.256 263.757 187.884 262.839C187.69 262.345 187.601 261.816 187.622 261.285C187.644 260.755 187.775 260.235 188.009 259.758C188.242 259.281 188.572 258.858 188.978 258.516C189.384 258.174 189.857 257.92 190.366 257.77L254.934 238.553L204.154 67.9214Z" fill="#FEC272"/>
<g style="mix-blend-mode:multiply" opacity="0.52">
<path d="M45.3217 233.427C45.3217 233.427 22.2394 151.107 35.6261 132.977C46.9085 117.701 66.8752 108.761 90.4573 101.74C50.9309 101.496 0 116.644 0 116.644L45.3217 233.427Z" fill="#FEC272"/>
</g>
<path d="M204.154 67.9215L218.61 116.492C218.844 117.266 218.91 118.081 218.803 118.882C218.696 119.683 218.418 120.452 217.99 121.137C217.561 121.822 216.99 122.408 216.316 122.854C215.642 123.3 214.88 123.596 214.082 123.724C212.574 123.948 211.085 124.278 209.624 124.712C194.051 129.362 184.885 144.736 189.157 159.088C193.429 173.44 209.501 181.31 225.085 176.677C226.547 176.244 227.975 175.704 229.358 175.061C230.095 174.737 230.893 174.573 231.698 174.581C232.504 174.589 233.298 174.768 234.029 175.107C234.76 175.445 235.41 175.936 235.937 176.545C236.463 177.155 236.854 177.87 237.083 178.642L254.899 238.513L316.356 220.214C318.118 219.677 319.595 218.465 320.466 216.842C321.338 215.22 321.532 213.319 321.007 211.553L320.954 211.379C316.304 195.801 324.198 179.711 338.543 175.445C352.889 171.178 368.281 180.339 372.914 195.917L372.966 196.086C373.494 197.856 374.702 199.344 376.326 200.225C377.949 201.105 379.856 201.306 381.627 200.783L423.188 188.413C428.456 186.844 432.886 183.247 435.502 178.412C438.118 173.578 438.707 167.902 437.139 162.634L398.193 31.7665C396.624 26.4982 393.027 22.0689 388.193 19.4527C383.358 16.8366 377.683 16.2478 372.414 17.816L204.154 67.9215Z" fill="#FF97C9"/>
<g style="mix-blend-mode:multiply" opacity="0.19">
<path d="M209.623 124.706C209.623 124.706 193.487 133.239 199.37 153.037C205.252 172.835 219.011 175.41 228.061 177.026C211.785 191.197 163.691 171.69 163.691 171.69L181.862 122.811L209.623 124.706Z" fill="#FF97C9"/>
</g>
<g style="mix-blend-mode:multiply" opacity="0.19">
<path d="M425.257 122.561C425.257 122.561 399.571 41.0144 378.453 33.1498C360.655 26.5292 335.177 24.0937 311.607 31.1096C344.582 9.28289 399.379 0 399.379 0L425.257 122.561Z" fill="#FF97C9"/>
</g>
<path d="M89.1144 193.447C94.6104 193.447 99.0658 188.991 99.0658 183.495C99.0658 177.999 94.6104 173.544 89.1144 173.544C83.6185 173.544 79.1631 177.999 79.1631 183.495C79.1631 188.991 83.6185 193.447 89.1144 193.447Z" fill="#1C3177"/>
<path d="M162.93 171.486C168.426 171.486 172.881 167.031 172.881 161.535C172.881 156.039 168.426 151.584 162.93 151.584C157.434 151.584 152.979 156.039 152.979 161.535C152.979 167.031 157.434 171.486 162.93 171.486Z" fill="#1C3177"/>
<path d="M120.579 195.801C120.579 195.801 120.858 188.052 129.995 185.338C139.133 182.623 143.324 189.041 143.324 189.041" stroke="#1C3177" stroke-width="9" stroke-miterlimit="10" stroke-linecap="round"/>
<path d="M151.026 366.596C156.522 366.596 160.977 362.14 160.977 356.644C160.977 351.148 156.522 346.693 151.026 346.693C145.53 346.693 141.075 351.148 141.075 356.644C141.075 362.14 145.53 366.596 151.026 366.596Z" fill="#1C3177"/>
<path d="M224.842 344.629C230.338 344.629 234.793 340.174 234.793 334.678C234.793 329.182 230.338 324.727 224.842 324.727C219.346 324.727 214.89 329.182 214.89 334.678C214.89 340.174 219.346 344.629 224.842 344.629Z" fill="#1C3177"/>
<path d="M289.729 123.799C291.292 129.065 287.404 131.605 282.131 133.175C276.859 134.744 272.215 134.744 270.645 129.478C270.242 128.216 270.094 126.887 270.211 125.567C270.327 124.248 270.706 122.965 271.325 121.793C271.944 120.622 272.79 119.586 273.814 118.746C274.838 117.906 276.02 117.279 277.289 116.901C278.559 116.523 279.891 116.402 281.208 116.546C282.525 116.689 283.8 117.094 284.958 117.736C286.117 118.379 287.135 119.246 287.954 120.287C288.773 121.328 289.377 122.522 289.729 123.799Z" fill="#1C3177"/>
<path d="M363.539 101.833C365.108 107.105 361.214 109.639 355.941 111.209C350.669 112.778 346.025 112.778 344.456 107.512C344.052 106.25 343.904 104.921 344.021 103.601C344.138 102.282 344.516 100.999 345.135 99.8274C345.754 98.6562 346.6 97.6201 347.624 96.78C348.648 95.9398 349.83 95.3125 351.099 94.9346C352.369 94.5568 353.701 94.4361 355.018 94.5796C356.335 94.7231 357.61 95.1279 358.768 95.7703C359.927 96.4127 360.945 97.2798 361.764 98.3208C362.584 99.3618 363.187 100.556 363.539 101.833Z" fill="#1C3177"/>
<path d="M339.311 131.762C338.945 136.779 332.853 136.244 324.024 138.871C315.194 141.499 310.974 145.846 307.335 141.278C302.685 135.465 310.666 126.281 319.495 123.654C328.325 121.026 339.852 124.368 339.311 131.762Z" fill="#F774B9"/>
<path d="M209.818 354.954L174.134 365.571C170.743 366.58 168.812 370.147 169.821 373.538C170.83 376.929 174.397 378.859 177.788 377.851L213.472 367.233C216.863 366.224 218.794 362.657 217.785 359.267C216.776 355.876 213.209 353.945 209.818 354.954Z" fill="white"/>
<path d="M370.234 328.772L380.157 346.733" stroke="#1C3177" stroke-width="12" stroke-miterlimit="10" stroke-linecap="round"/>
<path d="M391.317 267.169L409.912 258.491" stroke="#1C3177" stroke-width="12" stroke-miterlimit="10" stroke-linecap="round"/>
<path d="M390.16 300.4L414.137 308.282" stroke="#1C3177" stroke-width="12" stroke-miterlimit="10" stroke-linecap="round"/>
</svg>
