<svg width="298" height="30" viewBox="0 0 298 30" fill="none" xmlns="http://www.w3.org/2000/svg">
<path d="M15.4827 29.56C12.5493 29.56 9.90932 28.9467 7.56266 27.72C5.24266 26.4667 3.41599 24.7333 2.08266 22.52C0.749323 20.3067 0.0826563 17.8 0.0826563 15C0.0826563 12.2 0.749323 9.69333 2.08266 7.48C3.41599 5.26666 5.24266 3.54666 7.56266 2.32C9.90932 1.06666 12.5493 0.439998 15.4827 0.439998C18.0427 0.439998 20.3493 0.893332 22.4027 1.8C24.456 2.70667 26.1627 4.01333 27.5227 5.72L22.4827 10.28C20.6693 8.09333 18.4693 7 15.8827 7C14.3627 7 13.0027 7.33333 11.8027 8C10.6293 8.66667 9.70932 9.61333 9.04266 10.84C8.40266 12.04 8.08266 13.4267 8.08266 15C8.08266 16.5733 8.40266 17.9733 9.04266 19.2C9.70932 20.4 10.6293 21.3333 11.8027 22C13.0027 22.6667 14.3627 23 15.8827 23C18.4693 23 20.6693 21.9067 22.4827 19.72L27.5227 24.28C26.1627 25.9867 24.456 27.2933 22.4027 28.2C20.3493 29.1067 18.0427 29.56 15.4827 29.56ZM44.588 29.56C41.628 29.56 38.9613 28.9333 36.588 27.68C34.2413 26.4267 32.388 24.6933 31.028 22.48C29.6946 20.2667 29.028 17.7733 29.028 15C29.028 12.2267 29.6946 9.73333 31.028 7.52C32.388 5.30667 34.2413 3.57333 36.588 2.32C38.9613 1.06666 41.628 0.439998 44.588 0.439998C47.548 0.439998 50.2013 1.06666 52.548 2.32C54.9213 3.57333 56.7746 5.30667 58.108 7.52C59.468 9.73333 60.148 12.2267 60.148 15C60.148 17.7733 59.468 20.2667 58.108 22.48C56.7746 24.6933 54.9213 26.4267 52.548 27.68C50.2013 28.9333 47.548 29.56 44.588 29.56ZM44.588 23C46.0013 23 47.2813 22.6667 48.428 22C49.5746 21.3333 50.4813 20.4 51.148 19.2C51.8146 17.9733 52.148 16.5733 52.148 15C52.148 13.4267 51.8146 12.04 51.148 10.84C50.4813 9.61333 49.5746 8.66667 48.428 8C47.2813 7.33333 46.0013 7 44.588 7C43.1746 7 41.8946 7.33333 40.748 8C39.6013 8.66667 38.6946 9.61333 38.028 10.84C37.3613 12.04 37.028 13.4267 37.028 15C37.028 16.5733 37.3613 17.9733 38.028 19.2C38.6946 20.4 39.6013 21.3333 40.748 22C41.8946 22.6667 43.1746 23 44.588 23ZM64.2961 0.999998H77.5361C80.6028 0.999998 83.3228 1.57333 85.6961 2.72C88.0694 3.86667 89.9094 5.49333 91.2161 7.6C92.5228 9.70667 93.1761 12.1733 93.1761 15C93.1761 17.8267 92.5228 20.2933 91.2161 22.4C89.9094 24.5067 88.0694 26.1333 85.6961 27.28C83.3228 28.4267 80.6028 29 77.5361 29H64.2961V0.999998ZM77.2161 22.68C79.6161 22.68 81.5361 22 82.9761 20.64C84.4428 19.28 85.1761 17.4 85.1761 15C85.1761 12.6 84.4428 10.72 82.9761 9.36C81.5361 8 79.6161 7.32 77.2161 7.32H72.2161V22.68H77.2161ZM119.823 22.88V29H97.343V0.999998H119.303V7.12H105.183V11.84H117.623V17.76H105.183V22.88H119.823ZM138.984 18.96V29H131.064V18.84L120.384 0.999998H128.744L135.384 12.12L142.024 0.999998H149.704L138.984 18.96ZM168.72 23.56H156.88L154.68 29H146.6L158.96 0.999998H166.76L179.16 29H170.92L168.72 23.56ZM166.4 17.72L162.8 8.76L159.2 17.72H166.4ZM208.045 0.999998V29H201.525L189.165 14.08V29H181.405V0.999998H187.925L200.285 15.92V0.999998H208.045ZM219.592 7.28H210.992V0.999998H236.072V7.28H227.512V29H219.592V7.28ZM251.263 21.56H246.943V29H239.023V0.999998H251.823C254.356 0.999998 256.556 1.42666 258.423 2.28C260.289 3.10667 261.729 4.30667 262.743 5.88C263.756 7.42667 264.263 9.25333 264.263 11.36C264.263 13.3867 263.783 15.16 262.823 16.68C261.889 18.1733 260.543 19.3467 258.783 20.2L264.823 29H256.343L251.263 21.56ZM256.263 11.36C256.263 10.0533 255.849 9.04 255.023 8.32C254.196 7.6 252.969 7.24 251.343 7.24H246.943V15.44H251.343C252.969 15.44 254.196 15.0933 255.023 14.4C255.849 13.68 256.263 12.6667 256.263 11.36ZM287.392 23.56H275.552L273.352 29H265.272L277.632 0.999998H285.432L297.832 29H289.592L287.392 23.56ZM285.072 17.72L281.472 8.76L277.872 17.72H285.072Z" fill="url(#paint0_linear)"/>
<defs>
<linearGradient id="paint0_linear" x1="-572" y1="15" x2="868" y2="15" gradientUnits="userSpaceOnUse">
<stop offset="0.441422" stop-color="#EF9393"/>
<stop offset="0.470912" stop-color="#43ADD0"/>
<stop offset="0.499268" stop-color="#8BDEDA"/>
<stop offset="0.531026" stop-color="#E17DC2"/>
<stop offset="0.566187" stop-color="#998EE0"/>
</linearGradient>
</defs>
</svg>
